<?xml version="1.0" encoding="UTF-8" standalone="no"?>
<!-- Created with Inkscape (http://www.inkscape.org/) -->

<svg
   version="1.1"
   id="svg1"
   width="588.15997"
   height="588.15997"
   viewBox="0 0 588.15997 588.15997"
   xmlns="http://www.w3.org/2000/svg"
   xmlns:svg="http://www.w3.org/2000/svg">
  <defs
     id="defs1" />
  <g
     id="g1">
    <g
       id="g2">
      <g
         id="g3">
        <path
           style="fill:#58bc61;fill-opacity:1"
           d="M 137.78049,469.33858 C 96.810912,433.59308 69.192202,383.25472 61.184092,329.7326 c -1.94534,-13.00163 -2.55709,-21.43744 -2.55266,-35.19999 0.005,-14.42136 0.82587,-24.78437 3.02095,-38.12149 14.86274,-90.30493 82.384108,-164.056507 171.185448,-186.980787 28.65663,-7.39778 57.89971,-9.271127 87.2,-5.586139 22.74702,2.860809 46.3846,9.643899 68.46792,19.647699 10.4129,4.71707 14.35354,6.97116 19.10573,10.92866 9.48748,7.900947 16.85877,20.076387 19.27523,31.837667 2.31558,11.27025 0.46953,23.45062 -5.30339,34.99218 -4.61829,9.23314 -9.42877,14.84201 -17.20136,20.0562 -12.93685,8.6786 -29.00291,11.83594 -43.38414,8.52594 -4.90878,-1.12982 -7.9772,-2.37222 -18.4,-7.45016 -14.32366,-6.97842 -19.80387,-8.99192 -30.07999,-11.05182 -7.72309,-1.54813 -13.03632,-2.0516 -21.6,-2.04676 -10.97486,0.006 -20.14163,1.29754 -30.26786,4.2639 -39.88788,11.68469 -70.90253,44.38186 -81.52238,85.94491 -2.62052,10.25597 -3.82519,19.26933 -4.10584,30.72 -0.86826,35.42604 9.4777,66.46437 29.91956,89.75999 l 2.6676,3.04 -3.30554,0.23788 c -14.78826,1.06422 -28.57229,6.54779 -39.62751,15.76464 -3.21181,2.67772 -8.67804,8.37891 -10.99843,11.4712 -5.68855,7.5809 -9.98969,16.44827 -12.19152,25.13441 -1.54378,6.09019 -1.8858,9.03793 -1.89725,16.35187 -0.0118,7.51096 0.4268,11.36016 2.01435,17.68 0.47527,1.892 0.77773,3.44 0.67213,3.44 -0.1056,0 -2.12819,-1.68931 -4.49465,-3.75402 z"
           id="path2" />
        <path
           style="fill:#2f7bbf;fill-opacity:1"
           d="m 277.79783,526.84892 c -33.20161,-2.04223 -61.68788,-9.78413 -92.20666,-25.0596 -6.87716,-3.4422 -10.15551,-5.71376 -14.35882,-9.94919 -8.39889,-8.46307 -14.22749,-19.38366 -16.52454,-30.96072 -0.9318,-4.69625 -1.01478,-12.94592 -0.17581,-17.47934 2.05193,-11.08771 8.31021,-22.37824 17.06865,-30.79347 8.74561,-8.40289 18.52941,-12.98724 30.69015,-14.38031 10.56893,-1.21073 23.61105,1.28131 31.85843,6.08738 6.1257,3.56968 15.45561,7.72973 22.07703,9.84377 6.85648,2.18909 15.62759,4.02231 23.49157,4.9099 4.5886,0.5179 18.50517,0.5082 23.2,-0.0162 26.76721,-2.98964 49.7426,-13.6287 68.12178,-31.54469 20.09848,-19.59195 32.02629,-45.49212 35.4488,-76.97387 0.80174,-7.37475 0.80019,-23.75818 -0.003,-30.56 -2.42237,-20.51653 -9.03871,-39.58627 -19.66746,-56.68594 -2.91005,-4.68173 -8.31218,-12.02767 -11.06414,-15.04527 l -1.79767,-1.9712 2.80079,-0.21425 c 20.0239,-1.53168 37.61351,-10.25956 49.40534,-24.5147 9.10781,-11.01042 14.55718,-23.75486 15.98078,-37.37423 0.47871,-4.57975 0.21218,-14.76107 -0.49504,-18.90995 -0.28458,-1.66954 -0.87818,-4.45869 -1.3191,-6.19809 -0.44091,-1.73941 -0.74683,-3.21739 -0.67981,-3.28441 0.23098,-0.23098 9.67951,8.34472 14.48393,13.14594 34.94348,34.92016 57.93768,78.5419 66.04487,125.2921 4.874,28.10597 4.60425,56.4366 -0.79867,83.88244 -16.25322,82.56329 -75.70475,150.97854 -153.86208,177.0604 -17.78023,5.93344 -35.24403,9.50571 -54.91942,11.23394 -6.61097,0.58068 -26.33729,0.85705 -32.8,0.45953 z"
           id="path1" />
      </g>
    </g>
  </g>
</svg>
